<svg xmlns="http://www.w3.org/2000/svg" viewBox="0 0 512 512" width="512" height="512">
  <defs>
    <linearGradient id="bg" x1="0" y1="0" x2="1" y2="1">
      <stop offset="0%" stop-color="#3584E4"/>
      <stop offset="100%" stop-color="#1C71D8"/>
    </linearGradient>
  </defs>

  <!-- Background -->
  <rect width="512" height="512" rx="108" fill="url(#bg)"/>

  <!-- Box body -->
  <rect x="120" y="156" width="272" height="220" rx="20" fill="#FFFFFF"/>

  <!-- Box opening (top edge) -->
  <rect x="120" y="156" width="272" height="28" rx="20" fill="#E6E6E6"/>
  <rect x="120" y="172" width="272" height="12" fill="#E6E6E6"/>

  <!-- Zipper teeth strip -->
  <rect x="148" y="184" width="22" height="192" fill="#F2F2F2"/>
  <g fill="#B8B8B8">
    <rect x="151" y="192" width="16" height="4" rx="2"/>
    <rect x="151" y="202" width="16" height="4" rx="2"/>
    <rect x="151" y="212" width="16" height="4" rx="2"/>
    <rect x="151" y="222" width="16" height="4" rx="2"/>
    <rect x="151" y="232" width="16" height="4" rx="2"/>
    <rect x="151" y="242" width="16" height="4" rx="2"/>
    <rect x="151" y="252" width="16" height="4" rx="2"/>
    <rect x="151" y="262" width="16" height="4" rx="2"/>
    <rect x="151" y="272" width="16" height="4" rx="2"/>
    <rect x="151" y="282" width="16" height="4" rx="2"/>
    <rect x="151" y="292" width="16" height="4" rx="2"/>
    <rect x="151" y="302" width="16" height="4" rx="2"/>
    <rect x="151" y="312" width="16" height="4" rx="2"/>
    <rect x="151" y="322" width="16" height="4" rx="2"/>
    <rect x="151" y="332" width="16" height="4" rx="2"/>
    <rect x="151" y="342" width="16" height="4" rx="2"/>
    <rect x="151" y="352" width="16" height="4" rx="2"/>
    <rect x="151" y="362" width="16" height="4" rx="2"/>
  </g>

  <!-- Zipper pull -->
  <rect x="139" y="316" width="40" height="44" rx="10" fill="#F5C211"/>
  <circle cx="159" cy="348" r="4" fill="#B8860B"/>
</svg>